PathFileType	4	(X/Y/Z)	C:\Users\dbl\Desktop\20210112(1)\20210112\bx_y_5_901.trc
DataRate	CameraRate	NumFrames	NumMarkers	Units	OrigDataRate	OrigDataStartFrame	OrigNumFrames
50.00	50.00	       5	43	mm	50.00	330	       527
Frame#	Time	Top.Head			R.Acromium			L.Acromium			Sternum			R.ASIS			L.ASIS			V.Sacral			R.Thigh.Upper			R.Thigh.Front			R.Thigh.Rear			R.Knee.Lat			R.Knee.Med			R.Shank.Upper			R.Shank.Front			R.Shank.Rear			R.Ankle.Lat			R.Midfoot.Lat			R.Toe.Lat			R.Toe.Tip			R.Toe.Med			R.Ankle.Med			R.Midfoot.Sup			R.Heel			L.Thigh.Upper			L.Thigh.Front			L.Thigh.Rear			L.Knee.Lat			L.Knee.Med			L.Shank.Upper			L.Shank.Front			L.Shank.Rear			L.Ankle.Lat			L.Midfoot.Lat			L.Toe.Lat			L.Toe.Tip			L.Toe.Med			L.Ankle.Med			L.Midfoot.Sup			L.Heel			origin1 front left			origin2 front right			origin 3 back right			origin 4 back leftt			
		X1	Y1	Z1	X2	Y2	Z2	X3	Y3	Z3	X4	Y4	Z4	X5	Y5	Z5	X6	Y6	Z6	X7	Y7	Z7	X8	Y8	Z8	X9	Y9	Z9	X10	Y10	Z10	X11	Y11	Z11	X12	Y12	Z12	X13	Y13	Z13	X14	Y14	Z14	X15	Y15	Z15	X16	Y16	Z16	X17	Y17	Z17	X18	Y18	Z18	X19	Y19	Z19	X20	Y20	Z20	X21	Y21	Z21	X22	Y22	Z22	X23	Y23	Z23	X24	Y24	Z24	X25	Y25	Z25	X26	Y26	Z26	X27	Y27	Z27	X28	Y28	Z28	X29	Y29	Z29	X30	Y30	Z30	X31	Y31	Z31	X32	Y32	Z32	X33	Y33	Z33	X34	Y34	Z34	X35	Y35	Z35	X36	Y36	Z36	X37	Y37	Z37	X38	Y38	Z38	X39	Y39	Z39	X40	Y40	Z40	X41	Y41	Z41	X42	Y42	Z42	X43	Y43	Z43	

330	6.580	-127.62524	122.06026	1026.32764	-342.22733	-35.71071	941.78351	-371.50748	257.78210	929.69055	-429.09000	86.95798	1157.72375	-809.69409	-18.23260	955.76349	-812.12048	206.47269	994.25116	-953.00507	87.02681	1090.47131	-869.79028	-79.74921	836.44904	-796.16675	-15.71218	792.01642	-865.62708	-69.96071	683.53632	-862.86285	-35.60869	593.52533	-825.29901	79.15386	569.82153	-846.88971	-32.02273	549.91272	-782.96094	10.67307	521.44153	-866.83173	-41.58006	462.19662	-773.67908	-11.56708	198.58861	-664.78864	-68.72511	160.56894	-623.66858	-79.14254	157.82443	-562.48572	-38.13419	163.36539	-604.61896	19.40816	166.92905	-729.63031	70.58881	221.31024	-677.05084	52.36971	163.89424	-797.15668	51.38049	171.37871	-859.38336	281.48889	853.07495	-797.33337	211.69862	800.59985	-885.95337	288.38007	720.19208	-872.62390	252.93475	611.58917	-837.34277	158.96252	554.98425	-854.07007	246.03824	556.43256	-789.13586	204.25648	531.08215	-871.75891	258.49744	477.78668	-777.10742	228.45630	199.69113	-665.79980	300.39255	158.56639	-627.41791	307.92178	161.07799	-562.85345	258.92160	164.82924	-596.71063	223.46910	173.20644	-722.87585	158.37538	222.54321	-677.63861	176.78677	162.83273	-800.19348	178.88681	179.57010	-528.09448	304.00168	146.20161	-517.96576	-73.08331	142.83034	-875.91382	-79.04253	141.15990	-882.48169	296.02820	144.57283	
331	6.600	-128.18274	121.83759	1029.07031	-342.63391	-36.21217	943.60919	-371.84595	257.53525	931.95374	-428.97699	86.86790	1158.52002	-809.74829	-18.33917	956.12939	-811.49451	206.39685	994.51697	-954.00006	86.73627	1090.23608	-870.26794	-80.06238	836.52246	-796.59314	-15.90695	791.98932	-866.21240	-70.26306	683.42200	-862.77393	-35.53493	593.44904	-825.35803	79.00285	569.72357	-847.25568	-32.14147	549.65601	-783.31628	10.53293	521.25293	-867.06238	-41.82461	462.08963	-773.76074	-11.64344	198.46770	-664.79980	-68.79609	160.51767	-623.57751	-79.23480	157.86163	-562.52386	-38.18197	163.38185	-604.59100	19.38414	167.01344	-729.66046	70.50052	221.26949	-677.08282	52.35720	163.97627	-797.16510	51.38386	171.36148	-859.97668	281.23010	853.03638	-797.85071	211.42644	800.67328	-886.42694	288.32147	720.22650	-872.92560	252.82951	611.47046	-837.16541	158.95551	554.76111	-854.27924	245.89009	556.35193	-789.48499	204.09601	531.05432	-871.79749	258.55933	477.69373	-777.19885	228.38876	199.55405	-665.81354	300.36969	158.55580	-627.45270	307.87759	161.14169	-562.88751	258.91168	164.93210	-596.72113	223.47328	173.17581	-722.91119	158.41768	222.41585	-677.58374	176.90694	162.90144	-800.23077	178.86943	179.43225	-528.09601	303.91992	146.21765	-517.95935	-73.05796	142.81339	-875.99695	-79.01054	141.16580	-882.50043	296.04688	144.57251	
332	6.620	-128.85895	121.55990	1032.75244	-343.12906	-36.77407	946.00848	-372.23950	257.36694	934.84558	-428.93781	86.78036	1159.43774	-809.74207	-18.40664	956.60925	-810.79224	206.31845	994.82422	-955.15759	86.51016	1089.99988	-870.78021	-80.41569	836.66071	-796.94806	-16.18366	791.93964	-866.82117	-70.49542	683.25616	-862.62378	-35.46088	593.39410	-825.38074	78.84597	569.61713	-847.65106	-32.28573	549.42535	-783.62781	10.45947	521.18646	-867.30566	-42.09525	462.01163	-773.85297	-11.72594	198.37187	-664.81506	-68.88035	160.47385	-623.51105	-79.37533	157.89923	-562.54865	-38.21305	163.38318	-604.56995	19.37258	167.07907	-729.69122	70.38892	221.24316	-677.14172	52.34296	164.04140	-797.16296	51.38212	171.34279	-860.63843	280.94867	853.03088	-798.34851	211.17551	800.76801	-886.92029	288.25815	720.27710	-873.21741	252.76102	611.39685	-836.93250	158.92436	554.55920	-854.45123	245.75711	556.27112	-789.75549	204.01817	531.07544	-871.87408	258.64655	477.60632	-777.26941	228.31126	199.39648	-665.81311	300.33740	158.56929	-627.49194	307.82471	161.19919	-562.92657	258.89493	164.98355	-596.74353	223.49335	173.18640	-722.95428	158.45387	222.34494	-677.52826	176.99535	162.97148	-800.27942	178.78773	179.34230	-528.11914	303.84457	146.21300	-517.95789	-73.03412	142.79596	-876.03241	-78.96931	141.21428	-882.52069	296.06012	144.56860	
333	6.640	-129.64410	121.30615	1037.34277	-343.71127	-37.39593	948.98920	-372.66269	257.29263	938.40137	-428.97388	86.69556	1160.47754	-809.67175	-18.43370	957.20520	-810.01367	206.23755	995.17291	-956.46936	86.30453	1089.69482	-871.28741	-80.70566	836.77252	-797.30597	-16.46897	791.88245	-867.37579	-70.55846	683.00848	-862.41107	-35.38752	593.36200	-825.36536	78.68369	569.50293	-848.02411	-32.46729	549.26166	-783.94177	10.38338	521.20618	-867.57080	-42.31212	461.90491	-773.93170	-11.77448	198.31265	-664.82928	-68.94726	160.44145	-623.49139	-79.50994	157.93492	-562.55310	-38.20314	163.35463	-604.56989	19.36626	167.10791	-729.69336	70.28502	221.24648	-677.17053	52.30988	164.08704	-797.14679	51.38794	171.28122	-861.34021	280.67432	853.05872	-798.83484	210.96220	800.85962	-887.41162	288.09778	720.26642	-873.53619	252.67607	611.35364	-836.64331	158.86848	554.38000	-854.65649	245.62617	556.13525	-789.96710	204.01028	531.09656	-872.10571	258.66635	477.48825	-777.34021	228.23672	199.25844	-665.82495	300.28467	158.57674	-627.51904	307.77664	161.23053	-562.97723	258.89099	164.98178	-596.78699	223.53140	173.25952	-722.98303	158.46568	222.34399	-677.50525	176.97070	162.99478	-800.33337	178.66447	179.28252	-528.14673	303.82822	146.19217	-517.96344	-73.00320	142.79626	-875.99976	-78.93236	141.25957	-882.53467	296.06540	144.56546	
334	6.660	-130.52576	121.15410	1042.87842	-344.37912	-38.07727	952.55908	-373.07755	257.28766	942.62427	-429.08658	86.61365	1161.63989	-809.53387	-18.41908	957.91919	-809.15881	206.15430	995.56335	-957.86761	86.09937	1089.28760	-871.77502	-80.86082	836.78638	-797.73877	-16.64325	791.80347	-867.83191	-70.49809	682.70947	-862.13477	-35.31590	593.35437	-825.31036	78.51649	569.38171	-848.38696	-32.69514	549.16327	-784.31763	10.25375	521.22260	-867.88452	-42.45171	461.73120	-774.00104	-11.79163	198.27974	-664.83209	-68.99128	160.42413	-623.51227	-79.58517	157.95212	-562.57269	-38.13543	163.28723	-604.59418	19.35936	167.11232	-729.69116	70.19061	221.27153	-677.15387	52.28385	164.11784	-797.14069	51.39830	171.17628	-862.04999	280.42468	853.12195	-799.36627	210.78194	800.92798	-887.89813	287.82889	720.18658	-873.92688	252.54909	611.33777	-836.29724	158.78722	554.22479	-854.99860	245.48398	555.94080	-790.21545	204.02649	531.08173	-872.55334	258.58273	477.31253	-777.43158	228.17569	199.15852	-665.87146	300.22321	158.55289	-627.54077	307.75159	161.24551	-563.04260	258.91086	164.95262	-596.85150	223.59212	173.38106	-722.98724	158.46170	222.38174	-677.52844	176.82870	162.96407	-800.38983	178.54761	179.22639	-528.16724	303.86533	146.18730	-517.96423	-72.96568	142.81567	-875.92480	-78.90844	141.30707	-882.54175	296.06921	144.56865	
